# xmcd
#
# Track frame offsets:
#	150
#	16649
#	37756
#	52557
#	69230
#	84115
#	105805
#	125019
#	141059
#	159117
#	178052
#
# Disc length: 2666 seconds
# Revision: 0
# Processed by: cddbd v1.5.2PL0 Copyright (c) Steve Scherf et al.
# Submitted via: dBpowerAMP V12.0
#
DISCID=690a680b
DTITLE=Sirens - Confessions Of An Optimist
DYEAR=2019
DGENRE=Blues
TTITLE0=Gets You
TTITLE1=Stumble
TTITLE2=Everything
TTITLE3=Over You
TTITLE4=Wrap Me Up
TTITLE5=Naked As Fools
TTITLE6=A Lot Like You
TTITLE7=Stick Around
TTITLE8=Wake Me
TTITLE9=That's All
TTITLE10=Only Love
EXTD=
EXTT0=
EXTT1=
EXTT2=
EXTT3=
EXTT4=
EXTT5=
EXTT6=
EXTT7=
EXTT8=
EXTT9=
EXTT10=
PLAYORDER=
